<?xml version="1.0" encoding="utf-8"?>
<!-- Generator: Adobe Illustrator 27.1.1, SVG Export Plug-In . SVG Version: 6.00 Build 0)  -->
<svg version="1.1" id="Calque_1" xmlns="http://www.w3.org/2000/svg" xmlns:xlink="http://www.w3.org/1999/xlink" x="0px" y="0px"
	 viewBox="0 0 1600 1600" style="enable-background:new 0 0 1600 1600;" xml:space="preserve">
<g>
	<g>
		<path d="M1511.1,74.1c14.8,0,26.9,12.1,26.9,26.9v1388.5c0,14.8-12.1,26.9-26.9,26.9h-126.5h-230.2V990h160.2h44.1v-44.1V734.3
			v-44.1h-44.1h-160.2V560c0-19.4,40.9-49.2,76.2-49.2h104.6h44.1v-44.1V274.1V230h-44.1h-226.8c-61.9,0-129.4,28.1-180.5,75.1
			c-57.6,53-89.3,123.8-89.3,199.2v185.8H680.1h-44.1v44.1v211.7V990h44.1h158.5v526.2H97.9c-14.8,0-26.8-12-26.9-26.7l0-126.7
			l0-1262.1c0.1-14.7,12.1-26.7,26.8-26.7h126.6h1160H1511.1 M1511.1,30h-126.5h-1160H97.9C58.9,30,27.2,61.6,27,100.6v1262.3
			l0,126.7c0.1,39.1,31.8,70.8,70.9,70.8h784.8V945.9H680.1V734.3h202.6V504.4c0-137.8,124.9-230.3,225.7-230.3h226.8v192.6h-104.6
			c-51.6,0-120.3,41.8-120.3,93.3v174.3h204.3v211.7h-204.3v614.4h274.2h126.5c39.2,0,70.9-31.8,70.9-70.9V100.9
			C1582,61.8,1550.2,30,1511.1,30L1511.1,30z"/>
	</g>
</g>
</svg>
