<?xml version="1.0" encoding="UTF-8"?>
<svg id="Calque_1" data-name="Calque 1" xmlns="http://www.w3.org/2000/svg" version="1.1" viewBox="0 0 3000 3000">
  <defs>
    <style>
      .cls-1 {
        fill: #000;
      }

      .cls-1, .cls-2 {
        stroke-width: 0px;
      }

      .cls-2 {
        fill: #fff;
      }
    </style>
  </defs>
  <g>
    <circle class="cls-1" cx="1514.3" cy="1500.2" r="1186.2"/>
    <path class="cls-2" d="M1514.4,761.3c-200.7,0-225.9.9-304.7,4.5-78.7,3.6-132.4,16.1-179.3,34.3-48.6,18.9-89.8,44.1-130.9,85.2-41.1,41.1-66.3,82.3-85.3,130.9-18.3,47-30.8,100.7-34.3,179.3-3.5,78.8-4.4,104-4.4,304.7s.9,225.8,4.5,304.6c3.6,78.7,16.1,132.4,34.3,179.3,18.9,48.6,44.1,89.8,85.2,130.9,41.1,41.1,82.3,66.4,130.8,85.3,47,18.3,100.7,30.7,179.4,34.3,78.8,3.6,104,4.5,304.6,4.5s225.8-.9,304.6-4.5c78.7-3.6,132.4-16.1,179.4-34.3,48.6-18.9,89.7-44.2,130.8-85.3,41.1-41.1,66.3-82.3,85.3-130.9,18.2-47,30.6-100.7,34.3-179.3,3.5-78.8,4.5-103.9,4.5-304.6s-.9-225.9-4.5-304.7c-3.7-78.7-16.2-132.4-34.3-179.3-18.9-48.6-44.2-89.8-85.3-130.9-41.1-41.1-82.2-66.3-130.8-85.2-47.1-18.3-100.8-30.7-179.5-34.3-78.8-3.6-103.9-4.5-304.6-4.5h.2ZM1448.1,894.4c19.7,0,41.6,0,66.3,0,197.3,0,220.7.7,298.6,4.2,72,3.3,111.1,15.3,137.2,25.4,34.5,13.4,59.1,29.4,84.9,55.3,25.9,25.9,41.9,50.5,55.3,85,10.1,26,22.2,65.1,25.4,137.2,3.5,77.9,4.3,101.3,4.3,298.5s-.8,220.6-4.3,298.5c-3.3,72-15.3,111.1-25.4,137.2-13.4,34.5-29.4,59-55.3,84.9-25.9,25.9-50.4,41.9-84.9,55.3-26,10.2-65.1,22.2-137.2,25.5-77.9,3.5-101.3,4.3-298.6,4.3s-220.7-.8-298.6-4.3c-72-3.3-111.1-15.4-137.2-25.5-34.5-13.4-59.1-29.4-85-55.3-25.9-25.9-41.9-50.4-55.3-84.9-10.1-26-22.2-65.1-25.4-137.2-3.5-77.9-4.2-101.3-4.2-298.6s.7-220.6,4.2-298.5c3.3-72,15.3-111.1,25.4-137.2,13.4-34.5,29.4-59.1,55.3-85,25.9-25.9,50.5-41.9,85-55.3,26-10.2,65.2-22.2,137.2-25.5,68.2-3.1,94.6-4,232.3-4.2v.2ZM1908.8,1017.1c-49,0-88.7,39.7-88.7,88.6s39.7,88.7,88.7,88.7,88.7-39.7,88.7-88.7-39.7-88.7-88.7-88.7h0ZM1514.4,1120.7c-209.6,0-379.5,169.9-379.5,379.5s169.9,379.4,379.5,379.4c209.6,0,379.4-169.8,379.4-379.4s-169.9-379.5-379.4-379.5h0ZM1514.4,1253.9c136,0,246.3,110.3,246.3,246.3s-110.3,246.3-246.3,246.3-246.3-110.3-246.3-246.3,110.3-246.3,246.3-246.3Z"/>
  </g>
  <path class="cls-1" d="M1514.3,2924.2c-192.2,0-378.7-37.7-554.3-111.9-84.4-35.7-165.8-79.9-241.9-131.3-75.4-50.9-146.3-109.4-210.7-173.9s-122.9-135.3-173.9-210.7c-51.4-76.1-95.6-157.5-131.3-241.9-74.3-175.6-111.9-362.1-111.9-554.3s37.7-378.7,111.9-554.3c35.7-84.4,79.9-165.8,131.3-241.9,50.9-75.4,109.4-146.3,173.9-210.7s135.3-122.9,210.7-173.9c76.1-51.4,157.5-95.6,241.9-131.3,175.6-74.3,362.1-111.9,554.3-111.9s378.7,37.7,554.3,111.9c84.4,35.7,165.8,79.9,241.9,131.3,75.4,50.9,146.3,109.4,210.7,173.9,64.4,64.4,122.9,135.3,173.9,210.7,51.4,76.1,95.6,157.5,131.3,241.9,74.3,175.6,111.9,362.1,111.9,554.3s-37.7,378.7-111.9,554.3c-35.7,84.4-79.9,165.8-131.3,241.9-50.9,75.4-109.4,146.3-173.9,210.7-64.4,64.4-135.3,122.9-210.7,173.9-76.1,51.4-157.5,95.6-241.9,131.3-175.6,74.3-362.1,111.9-554.3,111.9ZM1514.3,104.5c-188.4,0-371.2,36.9-543.3,109.7-82.7,35-162.5,78.3-237.1,128.7-73.9,49.9-143.4,107.3-206.6,170.4s-120.5,132.7-170.4,206.6c-50.4,74.6-93.7,154.4-128.7,237.1-72.8,172.1-109.7,354.8-109.7,543.3s36.9,371.2,109.7,543.3c35,82.7,78.3,162.5,128.7,237.1,49.9,73.9,107.3,143.4,170.4,206.6s132.7,120.5,206.6,170.4c74.6,50.4,154.4,93.7,237.1,128.7,172.1,72.8,354.8,109.7,543.3,109.7s371.2-36.9,543.3-109.7c82.7-35,162.5-78.3,237.1-128.7,73.9-49.9,143.4-107.3,206.6-170.4,63.2-63.2,120.5-132.7,170.4-206.6,50.4-74.6,93.7-154.4,128.7-237.1,72.8-172.1,109.7-354.8,109.7-543.3s-36.9-371.2-109.7-543.3c-35-82.7-78.3-162.5-128.7-237.1-49.9-73.9-107.3-143.4-170.4-206.6-63.2-63.2-132.7-120.5-206.6-170.4-74.6-50.4-154.4-93.7-237.1-128.7-172.1-72.8-354.8-109.7-543.3-109.7Z"/>
</svg>